<?xml version="1.0" standalone="no"?>
<!DOCTYPE svg PUBLIC "-//W3C//DTD SVG 20010904//EN"
 "http://www.w3.org/TR/2001/REC-SVG-20010904/DTD/svg10.dtd">
<svg version="1.0" xmlns="http://www.w3.org/2000/svg"
 width="182.000000pt" height="160.000000pt" viewBox="0 0 182.000000 160.000000"
 preserveAspectRatio="xMidYMid meet">
<metadata>
Created by potrace 1.15, written by Peter Selinger 2001-2017
</metadata>
<g transform="translate(0.000000,160.000000) scale(0.100000,-0.100000)"
fill="#000000" stroke="none">
<path d="M437 758 c-225 -391 -407 -711 -405 -713 2 -1 120 97 264 219 l261
221 7 153 7 152 140 337 c76 185 138 337 137 338 -2 2 -187 -317 -411 -707z"/>
<path d="M775 737 c-54 -22 -72 -36 -90 -73 -28 -60 -23 -103 19 -141 54 -50
72 -45 80 21 12 90 12 91 184 94 l150 3 6 37 c12 77 24 72 -156 71 -99 0 -175
-5 -193 -12z"/>
<path d="M897 565 c-4 -9 -7 -30 -7 -46 0 -29 0 -29 59 -29 62 0 111 -13 111
-29 0 -29 -33 -41 -111 -41 -69 0 -79 -2 -79 -17 0 -10 -3 -35 -6 -55 l-7 -38
84 0 c61 0 96 6 126 20 95 43 122 184 43 225 -15 8 -68 17 -117 21 -79 6 -91
5 -96 -11z"/>
<path d="M999 201 l-127 -69 -348 -46 c-192 -26 -356 -48 -364 -50 -8 -2 354
-4 805 -4 l820 -1 -325 119 c-179 66 -327 120 -330 120 -3 0 -62 -31 -131 -69z"/>
</g>
</svg>
